<svg width="0" height="0" class="hidden" fill="currentColor">
    <symbol viewBox="0 0 488.471 488.471" xmlns="http://www.w3.org/2000/svg" id="edit">
        <path d="M483.999 111.318L377.152 4.472c-5.962-5.962-15.621-5.962-21.584 0L4.502 355.539A15.254 15.254 0 0 0 .03 366.331L0 473.207c0 4.04 1.61 7.93 4.472 10.792s6.752 4.472 10.792 4.472l106.876-.03c4.054 0 7.93-1.61 10.792-4.472l351.067-351.067c5.962-5.962 5.962-15.621 0-21.584zM115.796 457.94l-85.298.03.03-85.298 251.868-251.868 85.268 85.268L115.796 457.94zm273.453-273.453L303.981 99.22l62.371-62.371 85.268 85.268z"></path>
    </symbol>

    <symbol xmlns="http://www.w3.org/2000/svg" viewBox="0 0 512.001 512.001" id="delete">
        <path d="M505.922 476.567L285.355 256 505.92 35.435c8.106-8.105 8.106-21.248 0-29.354-8.105-8.106-21.248-8.106-29.354 0L256.001 226.646 35.434 6.081c-8.105-8.106-21.248-8.106-29.354 0-8.106 8.105-8.106 21.248 0 29.354L226.646 256 6.08 476.567c-8.106 8.106-8.106 21.248 0 29.354 8.105 8.105 21.248 8.106 29.354 0l220.567-220.567 220.567 220.567c8.105 8.105 21.248 8.106 29.354 0s8.106-21.248 0-29.354z"></path>
    </symbol>
</svg>
